# xmcd
#
# Track frame offsets:
# 150
# 22746
# 44570
# 63690
# 79609
# 97571
# 117624
# 134772
# 158388
# 179406
# 197540
#
# Disc length: 2868 seconds
#
#
# Revision: 2
# Processed by: cddbd v1.5.2PL0 Copyright (c) Steve Scherf et al.
# Submitted via: FreeRIP 2.951 
#
DISCID=890b320b
DTITLE=Barbra Streisand - Guilty Pleasures
DYEAR=2005
DGENRE=misc
TTITLE0=Come Tomorrow (Duet With Barry Gibb)
TTITLE1=Stranger In A Strange Land
TTITLE2=Hideaway
TTITLE3=It's Up To You
TTITLE4=Night Of My Life
TTITLE5=Above The Law (Duet With Barry Gibb)
TTITLE6=Without Your Love
TTITLE7=All The Children
TTITLE8=Golden Dawn
TTITLE9=(Our Love) Don't Throw It All Away
TTITLE10=Letting Go
EXTD=
EXTT0=
EXTT1=
EXTT2=
EXTT3=
EXTT4=
EXTT5=
EXTT6=
EXTT7=
EXTT8=
EXTT9=
EXTT10=
PLAYORDER=
